<svg version="1" xmlns="http://www.w3.org/2000/svg" width="692" height="692" viewBox="0 0 519.000000 519.000000"><path d="M372.4 33.9c-5.7 1.5-8.9 4.2-16.1 14C344.4 64 330.2 80 327.9 80c-2.6 0-8.4-2.7-10-4.6-1-1.2-.3-2.4 3.9-6.7 2.9-2.9 5.2-5.8 5.2-6.5 0-.7-1.4-1.2-3.3-1.2-2.6 0-4.2 1-7.7 4.6-2.5 2.5-7.1 5.9-10.3 7.5-3.9 2-6.5 4.2-7.9 6.5-1.3 2.2-3.5 4.1-6 5.1-4.1 1.6-5.8 3.8-5.8 7.2 0 2.5.3 2.5 15.4 1.1 10.7-1 11-1 14.6 1.4 3.5 2.3 6.2 4.9 12.6 12.4 2.2 2.5 4 3.5 7.3 3.9 3.7.5 5.3 1.5 10.5 6.8 3.4 3.5 8.3 8.2 11 10.5l5 4.2 1.8-2.2c2-2.5 1.6-4-1.3-4-2.3 0-7.5-6.9-8.8-11.7-1.4-4.9.1-8.1 4.6-9.9 4.7-2 7.9-.7 9.8 4 1.4 3.3 4.5 33.6 3.7 36.7-.2.9-10.1 6.5-23.5 13.4-23 11.6-25.5 13-24.6 13.9.8.8 53.3-15.5 54.9-17 .9-.9 2-6.2 3.1-14.7 2-15.6 4.1-24.6 7.2-30.4 1.3-2.5 7.7-9.2 16.1-16.8l13.9-12.6 4.1.6c2.3.4 9.7 3.3 16.6 6.5 14 6.5 17.4 7.7 25.1 9 12 2 23.3-4.7 29.2-17.2 3.5-7.3 3.4-9.3-.1-4.8-10.9 14-22.3 16.2-39.5 7.5-10.2-5.2-18.2-11.3-32.6-24.8C415 51 406.6 44 403.6 42.1c-10.8-6.5-24.1-10-31.2-8.2zM107.6 142.6c-1.8 1.8-2.1 6.6-.6 9.5 1.3 2.4 7.2 2.6 9.4.3 2.2-2.1 2-7.7-.2-9.7-2.3-2.1-6.6-2.2-8.6-.1zM35 186.5V229h44v-7H43v-78h-8v42.5zM267.9 164c-15 2.5-25.4 14.1-26.7 29.6-.6 8 1 14.4 5.4 21 6.4 9.7 18.3 15.2 30.3 14.1 7.3-.6 12.9-3.5 17.6-8.9l3.8-4.3-.7 7c-1.1 13.5-7.8 20.8-20.1 22.1-8.5.9-13.7-.8-19.6-6.3-2.7-2.5-5.1-5.4-5.4-6.4-.5-1.4-1.6-1.9-4.6-1.9-4.5 0-4.7.6-1.9 6.1 5.2 10.1 15.5 15.9 28.5 15.9 13.6 0 23.9-5.8 28.6-16.3 2.3-5.1 2.4-6 2.7-38l.3-32.7H298v5c0 5.2-1.2 6.4-2.9 3.1-1.7-3.2-10-8-15-8.6-2.5-.4-5.3-.8-6.1-1-.8-.1-3.6.1-6.1.5zm13.5 8.1c5.7 1.6 13.1 9 15.2 15.1 4 12.3-2.4 27.8-13.6 32.6-4.2 1.8-13.2 2-18.2.3-2-.7-5.6-3.3-8.1-6-15.4-16.4-5.4-42.9 16.3-43.1 2.5 0 6.2.5 8.4 1.1zM174.8 166.1c-2 .6-5.4 2.6-7.6 4.5-2.2 1.9-4.3 3.4-4.6 3.4-.3 0-.6-1.6-.6-3.5 0-3.4-.1-3.5-4-3.5h-4v62h8v-19.8c0-10.8.5-21.4 1.1-23.5 1.3-5 6.1-10.3 10.5-11.7 2-.7 6.5-1 10-.8 7.5.5 10.8 2.4 14.4 8.9 2.4 4.2 2.5 5.1 2.8 25.6l.4 21.3h7.8v-19.9c0-17-.3-20.8-2-26.3-2.2-7.1-7.1-13-12.8-15.5-4.4-1.8-14.8-2.5-19.4-1.2zM456.9 166.3c-14.9 4.2-24.1 16.1-24.2 31.1-.1 13.7 6.4 24.5 18 30.2 5 2.4 7 2.8 14.3 2.8 10.6 0 14.8-1.4 20.5-7 2.5-2.4 4.8-4.4 5-4.4.3 0 .5 2.2.5 5v5h8v-62h-8v5c0 2.7-.2 5-.5 5s-2.2-1.6-4.2-3.6-5.6-4.5-7.9-5.6c-5.6-2.4-15.6-3.1-21.5-1.5zm22.1 10.3c2.5 1.6 5.8 4.9 7.4 7.2 2.6 3.7 3.1 5.4 3.4 11.8.5 9.4-1.5 15.1-7.2 20.8-4.7 4.7-9.8 6.6-17.7 6.6-7-.1-12.4-2.6-17.6-8.2-8.9-9.8-8.6-25.4.8-34.7 5.5-5.6 10.2-7.2 19-6.8 6.4.3 8.3.8 11.9 3.3zM109.2 167.2c-.9.9-1.2 9.2-1.2 31.4v30.2l2.6.6c1.4.4 3.4.4 4.5.1 1.8-.6 1.9-2 1.9-31 0-29.1-.1-30.5-1.9-31.5-2.6-1.3-4.4-1.3-5.9.2zM390.3 166.8c-.9.6-1.4 6.6-1.6 21.2-.3 15.3-.8 21.4-2 24-4.3 10.2-17.5 14-26.7 7.7-7.9-5.3-8.9-9.2-9-33.6v-18.4l-3.1.7c-1.7.3-3.6.6-4.1.6-1.8 0-.4 40.8 1.4 45.1 2.2 5 8.3 11.6 13.1 14.1 12.3 6.2 28.6.8 34.9-11.6 2.5-4.9 4-20.9 3.6-38.1-.3-12-.3-12-2.8-12.3-1.4-.1-3 .1-3.7.6zM31.6 301.8c-.9.9-.7 92.6.3 94 .5.8 2.3 1.2 4.7 1l3.9-.3.5-22 .5-22 15.5-.6c8.5-.3 16.9-1.1 18.5-1.8 9.5-3.8 14.4-10.5 15.2-20.5 1-11.7-3.6-20.5-12.9-24.9-5-2.4-6.5-2.6-25.5-3-11.1-.3-20.4-.3-20.7.1zm40.6 10c7.6 3 11.4 16.2 6.6 23.1-3.3 4.9-6.5 6.9-12.7 8.1-5.9 1.1-21 1.4-23.5.4-1.4-.5-1.6-3-1.6-17.2v-16.5l14.3.6c7.8.3 15.4 1 16.9 1.5zM436.6 334.4c7.4 18.5 13.4 34.2 13.4 35 0 .7-2.5 7.1-5.5 14.2l-5.4 12.9 5.1.3c2.7.2 5.2.2 5.3 0 .2-.2 9.6-21.8 20.9-48.1l20.4-47.8-5.5.3-5.6.3-10.8 25.5c-6 14-11.2 26.4-11.7 27.4-.7 1.5-3.3-4.2-11.8-25.5l-11-27.4-5.6-.3-5.6-.3 13.4 33.5zM189 349.5V397h10v-95h-10v47.5zM318 313.1c-11.3 2-21.8 9.8-26.8 19.9-2.4 5-2.7 6.6-2.7 16.5 0 9.5.3 11.6 2.3 15.7 7.5 14.9 23.8 23.3 40.6 20.6 7.5-1.1 11-2.9 16.9-8.6l4.7-4.6V385h9v-71h-9v12.5l-2.9-3.6c-6.7-8.1-19.5-12-32.1-9.8zm17.9 10.6c12.5 5 19.1 18.8 15.7 32.4-2.9 11-9.8 18-20.1 20.4-17.5 4.1-33.6-8.7-33.7-26.8 0-10.8 3.5-17.5 12.3-23.6 7.1-5 17.3-5.9 25.8-2.4zM274 443.2c-3.4 1.8-6.2 7.5-5.5 11.2.7 4.1 3.1 6.4 9.2 9.2 3.5 1.5 5.7 3.2 6.5 5 1.1 2.3 1 2.8-1.1 4.5-3.2 2.6-5.6 2.4-7.9-.6-1.4-1.7-3-2.5-5.1-2.5-3.5 0-3.8.8-1.6 5 2.2 4.2 5.3 6 10.6 6 5.7 0 10.4-3.3 11.8-8.5 1.8-6.6-.9-11-8.8-14.4-2.7-1.1-5.3-2.7-6-3.5-1.5-1.8-.6-5.2 1.5-6 1.8-.7 5.4 1 5.4 2.4 0 .6 1.6 1 3.5 1 2.8 0 3.5-.4 3.5-1.9 0-1.1-1-3.2-2.3-4.6-2.7-3.2-9.7-4.3-13.7-2.3zM373.7 442.7c-.4.3-.7 3-.7 5.8v5.3l-4.4-1.6c-6-2.2-11.5-.5-15.3 4.5-2.4 3.1-2.8 4.6-2.8 10 0 5.9.2 6.5 3.7 9.9 3 3 4.5 3.8 8.8 4.2 4.2.4 5.7.1 8.1-1.7 2.9-2.1 2.9-2.1 2.9-.1 0 1.6.7 2 3 2h3v-39h-2.8c-1.6 0-3.2.3-3.5.7zm-2.6 17.2c3.2 3.3 3.7 6.7 1.4 11-3.9 7.7-15.5 4.2-15.5-4.6.1-8.4 8.3-12.1 14.1-6.4zM409.3 452.6c-2.3.8-3.9 1-4.1.4-.2-.6-1.7-1-3.3-1H399v29h7v-9.8c0-11.1 1.1-13.2 6.8-13.2 4.4 0 5.2 2.2 5.2 13.4v9.6h7v-9.3c-.1-9.9-1.7-16.4-4.7-18.1-3.3-2-7.1-2.3-11-1zM452.5 452c-7.7 1.7-12.1 7.9-11.3 16.2.4 4.1 1.2 5.7 4.2 8.6 3.5 3.5 3.9 3.7 10.6 3.7 6.2 0 7.1-.3 9.9-2.9 1.7-1.7 3.1-3.6 3.1-4.3 0-1.8-5.1-1.7-7.6.2-2.8 2.1-9 1.9-11.4-.5-1.1-1.1-2-2.5-2-3 0-.6 4.3-1 11-1h11v-3c0-9.3-8.3-15.9-17.5-14zm9.5 8c3.4 3.4 2.4 4-6 4s-9.5-.7-6.3-4.2c2.3-2.6 9.6-2.5 12.3.2zM312.5 465.2l5.2 13.1-2.3 5.4c-1.3 2.9-2.4 5.6-2.4 5.8 0 .3 1.5.5 3.3.5h3.3l6.9-15.8c3.7-8.6 7.4-17.2 8.1-19l1.4-3.2h-3.8c-3.5 0-3.9.3-5.1 3.7-4.1 11.5-5.4 14.4-6.1 13.6-.4-.4-2-4.5-3.5-9.1l-2.7-8.2h-7.6l5.3 13.2zM485 452.3c0 .2 2.3 5.9 5 12.5 2.8 6.6 5 12.7 5 13.4 0 .7-1.1 3.7-2.5 6.5l-2.4 5.3h3.7l3.7-.1 8.1-18.9 8.2-19h-7.6l-3.3 9c-1.8 4.9-3.6 9-3.9 9-.3 0-1.9-3.9-3.5-8.8l-3-8.7-3.7-.3c-2.1-.2-3.8-.1-3.8.1z"/></svg>