<?xml version="1.0" encoding="utf-8"?>
<svg id="Layer_1" viewBox="0 0 2385.86 661.65" xmlns="http://www.w3.org/2000/svg">
  <defs>
    <style>
      .cls-1{fill:#fecb00}.cls-2{fill:#97ca00}.cls-3{fill:#fe6601}.cls-4{fill:#336799}.cls-5{fill:#d8d8d8}.cls-6{fill:#00bf08}
    </style>
  </defs>
  <path id="y" d="M1210.1 140.4H1474v384h-263.9v-384z" class="cls-1"/>
  <path id="g" d="M1512.7 140.4h262.9v384h-262.9v-384z" class="cls-2"/>
  <path id="r" d="M1819.4 140.4h262.9v384h-262.9v-384z" class="cls-3"/>
  <path id="b" d="M2121 140.4h264.9v384H2121v-384z" class="cls-4"/>
  <path d="M1273.8 230.2c0-3.8.9-4.7 4.6-4.6l77.7 1a56 56 0 0 1 44.3 21.4c10.9 13.4 12.7 29.5 10.8 46.8a48.8 48.8 0 0 1-21.9 36.7c-9.5 6-20.4 9.6-31.7 10.4-19.3 2-38.6 1.4-58 1.7-4.4 0-3.7 3.3-3.7 5.9 0 30-.2 60 .1 89.9 0 5.6-2 7-7.2 7-14.9 0-14.9 0-14.9-14.6l-.1-201.6zm22.2 86.4c-.2 4.4 1.8 6 5.7 6 17.5-.5 35.1 1.4 52.6-1a39 39 0 0 0 28.7-17.1c8.2-12.5 7.6-25.1 1.3-38.1-5.2-10.7-13.7-17.7-25.2-18.5-19.5-1.3-39-.9-58.6-1.3-3.6-.1-4.6 1.1-4.6 4.6.2 11 .3 54.6.1 65.4zm-514.8-30l-113 34.4c-1.5.3-3 1.2-4-.4a3.2 3.2 0 0 1 1.5-4.3c14.7-8.4 93.4-48.1 101.2-51.7 6-2.7 9.4-5.4 8.4-13.5-1.5-11-4-63-7.3-74.7-4-14.5-18.3-20.4-32.4-6.9-5.7 5.5-5.2 23 13.1 41.7 1.9 2 4.8 3 7.5 2.2 1-.4 2-1 3 .1 4.2 5.8-2.6 8.5-3.9 12.6-1 3-3.8 1.4-6-.4-15.4-12.2-28.6-26.7-42.3-40.5a18.7 18.7 0 0 0-14.7-6.3c-10.8.7-17-5.3-21.5-13.4-7.6-13.3-20-21-32-28.9-4.6-2.8-9 0-13.5.4-15.4 1.3-30.8 3.4-46.3 2.7-5.2-.3-3.7-4.1-3-6.6 2.5-10.8 11-15 20.7-17.3 2.3-.5 4.2-2 5-4.3A32 32 0 0 1 622.4 92c7.4-3 14-7.7 19.2-13.7 3-3 6.3-5.6 8.7-9 4.7-6.6 11.3-6 18-5.4 4.7.4 4.7 4.4 2.4 7-6 7.4-13 14-20.6 19.6-3 2-3.5 4-1 6.1 5.5 5 12 8.7 19.2 10.7 5.6 1.6 11-1.9 15-6 7-7.2 49.7-57 61.5-76.5a51.4 51.4 0 0 1 29.7-23.2 60.1 60.1 0 0 1 29 .4c34 7.7 57.6 23.7 90 57.8 20.8 22 81.4 73 119.8 64.8a60 60 0 0 0 40-26c1.7-2.4 3.5-4.6 5.6-6.7 1-.8 1.7-3.2 3.3-1.7 1 .9 0 2.6-.5 4.1a85.6 85.6 0 0 1-18.3 33.6 62 62 0 0 1-37.4 20.2c-34.5 4.2-82.8-25.9-99-32.5-6.2-2.5-12.7-4-19.3-4.4-7-.4-10.4 4.8-14.4 8.4-15.5 14-50.8 46.8-53.3 48.9-16.2 13.5-23.7 92.6-23.7 100.1.1 11.6-2 13.6-15 18h-.1zm30.3 108.5c1.4-24.9.7-68.7.5-83 0-4.5 2-5.8 5.8-6 15.3-.9 15.3-.9 15.3 14.5 0 19.2-1.2 71.9-4 86a58.8 58.8 0 0 1-60.9 48.4c-35 0-56-32.1-58.2-48.5-2.3-14.1-2-92.7-2.2-93.4l18.2-4.7c2 1.7 1.5 3.8 1.5 5.9 0 26.5.3 53.2 0 80A42.4 42.4 0 0 0 769 436c16.4-.4 40.6-7 42.5-41v.1zM188.1 313c-.3 21.8.4 134 .4 137.3 0 2.4-21 2.6-21-.6l.4-131.1c0-12.7 0-12.6 13.3-12.6 4.8 0 7 1.7 6.8 7h.1zm-10.3-34c-21.3 2.4-21.2-33.6.4-32 18.5 1.4 19.6 32-.4 32zM0 451.6V255.8h19.7v178h81v17.8zm1046.6 0v-25.4c-15.4 20.6-31.3 28.8-56 28.8-44.4 0-77.6-32.3-77.6-75.5a74.7 74.7 0 0 1 76.3-76.3c25.2 0 43 9 57.3 29.1v-25.7h19.6v145zm-56.7-130.4a56.9 56.9 0 0 0-57 57 57.5 57.5 0 0 0 58 58.8c31.3 0 55.6-25.7 55.6-58.5a56.2 56.2 0 0 0-56.6-57.3zM610 478.4c-12.4 16.4-33.6 26-58.8 26-36.6 0-62.3-18.6-72.9-52.5h19.1c14.8 26.3 28.9 34.5 53.3 34.5 35 0 53.2-20.4 53.2-58.6V418c-11.4 22.3-29.4 32.9-55.3 32.9a74.4 74.4 0 0 1-75.7-75.3c0-43.7 31.8-76.6 74.2-76.6 24.4 0 42.2 9.3 56.8 29.2v-25.8h19.6v119c0 28.4-3.8 43.8-13.6 57zM548.3 317c-32 0-55.4 23.9-55.4 57 0 33.7 23.9 58.9 55.7 58.9 31.5 0 55.3-25.8 55.3-59.7a55.3 55.3 0 0 0-55.6-56.2zM381.2 451.6v-76c0-39.5-18-54.4-44.8-54.4-26.2 0-44.2 15.1-44.2 50.6v79.8h-19.6v-145h19.6v18.8a57.5 57.5 0 0 1 46.6-22.2c36.3 0 62 21.5 62 72.3v76.1zm1255.4-6V226.1h22v219.5zm376.5-28v-28.5c-17.3 23.2-35 32.4-62.7 32.4-50 0-87-36.3-87-84.7a83.7 83.7 0 0 1 85.5-85.5 72.2 72.2 0 0 1 64.2 32.7v-28.9h22v162.5zm-63.6-146.1a63.8 63.8 0 0 0-63.9 63.8c0 37.2 28.3 66 65 66 35 0 62.4-28.8 62.4-65.7a63 63 0 0 0-63.5-64.1zm286.1 173.1h-23.5l26.4-62.4-63-157h24l51.5 129.4 55-129.5h23.4z"/>
  <path d="M1936.7 660.8h-17.2l12.5-28.4-24.4-60.3h18.3l14.8 43.1 16-43h18.4zm124.6-22.2V630a27 27 0 0 1-22 10.2 33.7 33.7 0 0 1-33.3-35c0-19.9 14.6-35.5 33.2-35.5a28 28 0 0 1 20.8 8.3v-28h16v88.6zm-19.8-54.2a19.5 19.5 0 0 0-19.4 20.1c0 11.8 8.6 21 19.8 21 10.8 0 19.3-9 19.3-20.5s-8.5-20.6-19.7-20.6zm303.7 76.4h-17.3l12.5-28.4-24.4-60.3h18.3l14.7 43.1 16.1-43h18.4zm-61.9-48.4h-51.5c1.9 8 8.9 13.1 18.3 13.1a17 17 0 0 0 14.7-6.6h17.4c-4.5 13.7-18.3 21.3-31.7 21.3-20.3 0-36-15.2-36-34.6a34.8 34.8 0 0 1 35-35c19.8 0 34.3 15.1 34.3 35.8a25.9 25.9 0 0 1-.5 6zm-33.5-27.2c-9.5 0-16 4.7-18.5 13.2h36.8c-2-8.5-8.5-13.2-18.3-13.2zm-87.3 53.4v-32.5c0-17.8-4.8-20.9-12.8-20.9a13.4 13.4 0 0 0-11.7 6.1c-2 3.3-2.7 7.1-2.7 16v31.3h-16v-66.5h14.8v6.4c5.9-5.7 11.2-8 18.7-8 9.3 0 16.5 3.4 20.8 9.7 3.6 5.1 4.8 10.9 4.8 22.8v35.6zm-318.3 1.6a28 28 0 0 1-29.1-27h17.1c.8 7.5 4.7 11 12 11 7.1 0 12-4.4 12-10.7a11.2 11.2 0 0 0-4-9c-2.7-2-3.6-2.4-15.4-6.9s-18.5-13-18.5-24c0-14 11.5-25.3 25.8-25.3s25.5 9.6 26.3 25.2h-17c-.5-6-3.8-9.3-9.4-9.3s-9 3.7-9 9c0 3.2 1.6 6 4.8 8 1.2.7 1.5.8 9.9 4 18 6.7 22.9 14.5 22.9 26.5a28 28 0 0 1-28.4 28.5z" class="cls-6" style="fill: rgb(0, 0, 0);"/>
</svg>