<?xml version="1.0" standalone="no"?><!DOCTYPE svg PUBLIC "-//W3C//DTD SVG 1.1//EN" "http://www.w3.org/Graphics/SVG/1.1/DTD/svg11.dtd" ><svg xmlns="http://www.w3.org/2000/svg"><metadata></metadata><defs><font id="4.001;newt;Oswald-SemiBold" horiz-adv-x="889"><font-face font-family="Oswald SemiBold" font-weight="600" font-stretch="normal" units-per-em="1000" panose-1="0 0 7 0 0 0 0 0 0 0" ascent="1193" descent="-289" x-height="0" bbox="-8 -169 850 863" underline-thickness="50" underline-position="-75" unicode-range="U+0041-042f" /><missing-glyph horiz-adv-x="670" d="M84 810 l502 0 l0 -810 l-502 0 l0 810 ZM483 90 l0 630 l-296 0 l0 -630 l296 0 Z" /><glyph glyph-name="A" unicode="a" d="M178 810 l183 0 l156 -810 l-152 0 l-30 178 l-128 0 l-31 -178 l-155 0 l157 810 ZM319 280 l-49 326 l-48 -326 l97 0 Z" /><glyph glyph-name="B" unicode="b" d="M61 810 l206 0 q117 0 182.5 -44 q65.5 -44 65.5 -159 q0 -152 -118 -172 q142 -20 142 -203 q0 -117 -60.5 -174.5 q-60.5 -57.5 -175.5 -57.5 l-242 0 l0 810 ZM267 483 q60 0 82 27 q22 27 22 86 q0 54 -28 77.5 q-28 23.5 -87 23.5 l-31 0 l0 -214 l42 0 ZM272 116 q60 0 84.5 30 q24.5 30 24.5 95 q0 70 -25.5 100.5 q-25.5 30.5 -86.5 30.5 l-44 0 l0 -256 l47 0 Z" /><glyph glyph-name="C" unicode="c" d="M286 -11 q-129 0 -183 69.5 q-54 69.5 -54 200.5 l0 290 q0 134 53.5 202.5 q53.5 68.5 183.5 68.5 q124 0 175.5 -60.5 q51.5 -60.5 51.5 -173.5 l0 -68 l-160 0 l0 75 q0 36 -3.5 58 q-3.5 22 -18 36.5 q-14.5 14.5 -44.5 14.5 q-45 0 -58 -29 q-13 -29 -13 -85 l0 -368 q0 -57 15 -85 q15 -28 56 -28 q42 0 54 28.5 q12 28.5 12 84.5 l0 79 l160 0 l0 -67 q0 -116 -51 -179.5 q-51 -63.5 -176 -63.5 Z" /><glyph glyph-name="D" unicode="d" d="M61 810 l198 0 q102 0 159.5 -26.5 q57.5 -26.5 82 -81.5 q24.5 -55 24.5 -146 l0 -295 q0 -93 -24 -149.5 q-24 -56.5 -81 -84 q-57 -27.5 -157 -27.5 l-202 0 l0 810 ZM261 115 q43 0 63.5 13.5 q20.5 13.5 26 39.5 q5.5 26 5.5 75 l0 335 q0 46 -6.5 69.5 q-6.5 23.5 -26.5 35 q-20 11.5 -63 11.5 l-35 0 l0 -579 l36 0 Z" /><glyph glyph-name="E" unicode="e" d="M61 810 l353 0 l0 -114 l-189 0 l0 -215 l146 0 l0 -115 l-146 0 l0 -254 l191 0 l0 -112 l-355 0 l0 810 Z" /><glyph glyph-name="F" unicode="f" d="M61 810 l342 0 l0 -113 l-178 0 l0 -218 l151 0 l0 -115 l-151 0 l0 -364 l-164 0 l0 810 Z" /><glyph glyph-name="G" unicode="g" d="M268 -12 q-118 0 -168.5 72.5 q-50.5 72.5 -50.5 207.5 l0 271 q0 138 53.5 209.5 q53.5 71.5 183.5 71.5 q125 0 178 -61 q53 -61 53 -176 l0 -47 l-160 0 l0 57 q0 56 -12.5 82.5 q-12.5 26.5 -56.5 26.5 q-45 0 -58 -30 q-13 -30 -13 -87 l0 -360 q0 -57 16 -87.5 q16 -30.5 60 -30.5 q43 0 60.5 32.5 q17.5 32.5 17.5 90.5 l0 86 l-79 0 l0 100 l228 0 l0 -416 l-108 0 l-11 72 q-37 -84 -133 -84 Z" /><glyph glyph-name="H" unicode="h" d="M63 810 l165 0 l0 -332 l143 0 l0 332 l165 0 l0 -810 l-165 0 l0 359 l-143 0 l0 -359 l-165 0 l0 810 Z" /><glyph glyph-name="I" unicode="i" d="M63 810 l164 0 l0 -810 l-164 0 l0 810 Z" /><glyph glyph-name="J" unicode="j" d="M12 95 q41 -1 62 6 q21 7 30 26.5 q9 19.5 9 58.5 l0 624 l165 0 l0 -631 q-1 -70 -17.5 -113 q-16.5 -43 -57 -64.5 q-40.5 -21.5 -111.5 -21.5 l-80 0 l0 115 Z" /><glyph glyph-name="K" unicode="k" d="M61 810 l164 0 l0 -342 l147 342 l160 0 l-152 -364 l164 -446 l-167 0 l-125 362 l-27 -44 l0 -318 l-164 0 l0 810 Z" /><glyph glyph-name="L" unicode="l" d="M61 810 l164 0 l0 -698 l191 0 l0 -112 l-355 0 l0 810 Z" /><glyph glyph-name="M" unicode="m" d="M72 810 l175 0 l100 -511 l106 511 l169 0 l15 -810 l-120 0 l-13 550 l-104 -550 l-102 0 l-107 553 l-12 -553 l-121 0 l14 810 Z" /><glyph glyph-name="N" unicode="n" d="M61 810 l115 0 l180 -421 l0 421 l137 0 l0 -810 l-111 0 l-180 448 l0 -448 l-141 0 l0 810 Z" /><glyph glyph-name="O" unicode="o" d="M288 -11 q-129 0 -184 67.5 q-55 67.5 -55 198.5 l0 302 q0 131 55 197 q55 66 184 66 q128 0 183.5 -66.5 q55.5 -66.5 55.5 -196.5 l0 -303 q0 -130 -55.5 -197.5 q-55.5 -67.5 -183.5 -67.5 ZM288 107 q42 0 56.5 28.5 q14.5 28.5 14.5 78.5 l0 383 q0 50 -14.5 77.5 q-14.5 27.5 -56.5 27.5 q-42 0 -56.5 -27.5 q-14.5 -27.5 -14.5 -77.5 l0 -383 q0 -51 14 -79 q14 -28 57 -28 Z" /><glyph glyph-name="P" unicode="p" d="M61 810 l257 0 q210 0 210 -233 q0 -123 -60 -174.5 q-60 -51.5 -167 -51.5 l-76 0 l0 -351 l-164 0 l0 810 ZM284 467 q53 0 71 25 q18 25 18 88 q0 41 -6 64.5 q-6 23.5 -25.5 36.5 q-19.5 13 -58.5 13 l-58 0 l0 -227 l59 0 Z" /><glyph glyph-name="Q" unicode="q" d="M467 -160 q-36 16 -84 60 q-48 44 -78 90 l-17 -1 q-129 0 -184 67.5 q-55 67.5 -55 198.5 l0 302 q0 131 55 197 q55 66 184 66 q128 0 183.5 -66.5 q55.5 -66.5 55.5 -196.5 l0 -303 q0 -90 -26 -150 q-26 -60 -83 -88 q50 -56 82 -74 l-33 -102 ZM288 107 q43 0 57 28.5 q14 28.5 14 78.5 l0 383 q0 50 -14 77.5 q-14 27.5 -57 27.5 q-44 0 -57.5 -27 q-13.5 -27 -13.5 -78 l0 -383 q0 -51 14 -79 q14 -28 57 -28 Z" /><glyph glyph-name="R" unicode="r" d="M61 810 l210 0 q131 0 197 -48 q66 -48 66 -166 q0 -79 -22 -127.5 q-22 -48.5 -78 -73.5 l112 -395 l-169 0 l-92 367 l-60 0 l0 -367 l-164 0 l0 810 ZM274 465 q58 0 81.5 28.5 q23.5 28.5 23.5 89.5 q0 60 -21 88 q-21 28 -76 28 l-57 0 l0 -234 l49 0 Z" /><glyph glyph-name="S" unicode="s" d="M270 -11 q-112 0 -168 61.5 q-56 61.5 -61 190.5 l142 24 q2 -77 21.5 -113.5 q19.5 -36.5 58.5 -36.5 q29 0 42 18.5 q13 18.5 13 47.5 q0 48 -21.5 81.5 q-21.5 33.5 -67.5 73.5 l-84 73 q-51 45 -77 90.5 q-26 45.5 -26 114.5 q0 99 59 152.5 q59 53.5 163 53.5 q109 0 151.5 -63.5 q42.5 -63.5 48.5 -161.5 l-143 -21 q-2 63 -14 94 q-12 31 -47 31 q-29 0 -44.5 -20 q-15.5 -20 -15.5 -49 q0 -41 18 -68 q18 -27 55 -60 l82 -72 q59 -54 91.5 -109.5 q32.5 -55.5 32.5 -130.5 q0 -58 -26 -103.5 q-26 -45.5 -73.5 -71.5 q-47.5 -26 -109.5 -26 Z" /><glyph glyph-name="T" unicode="t" d="M137 688 l-129 0 l0 122 l421 0 l0 -122 l-127 0 l0 -688 l-165 0 l0 688 Z" /><glyph glyph-name="U" unicode="u" d="M289 -11 q-90 0 -141 30.5 q-51 30.5 -72 88.5 q-21 58 -21 148 l0 554 l162 0 l0 -577 q0 -58 14 -91 q14 -33 58 -33 q44 0 58 33 q14 33 14 91 l0 577 l163 0 l0 -554 q0 -90 -21 -148 q-21 -58 -72.5 -88.5 q-51.5 -30.5 -141.5 -30.5 Z" /><glyph glyph-name="V" unicode="v" d="M22 810 l143 0 l96 -560 l90 560 l149 0 l-154 -810 l-170 0 l-154 810 Z" /><glyph glyph-name="W" unicode="w" d="M29 810 l139 0 l57 -495 l71 494 l111 0 l74 -492 l57 493 l137 0 l-104 -810 l-141 0 l-78 513 l-75 -513 l-143 0 l-105 810 Z" /><glyph glyph-name="X" unicode="x" d="M168 434 l-154 376 l156 0 l96 -234 l80 234 l140 0 l-147 -415 l161 -395 l-154 0 l-106 256 l-93 -256 l-139 0 l160 434 Z" /><glyph glyph-name="Y" unicode="y" d="M167 321 l-158 489 l155 0 l87 -285 l80 285 l151 0 l-156 -489 l0 -321 l-159 0 l0 321 Z" /><glyph glyph-name="Z" unicode="z" d="M31 102 l207 595 l-197 0 l0 113 l360 0 l0 -90 l-211 -608 l213 0 l0 -112 l-372 0 l0 102 Z" /><glyph glyph-name="uni0410" unicode="&#x410;" d="M171 810 l183 0 l156 -810 l-152 0 l-30 178 l-129 0 l-29 -178 l-156 0 l157 810 ZM312 280 l-49 326 l-48 -326 l97 0 Z" /><glyph glyph-name="uni0411" unicode="&#x411;" d="M63 810 l391 0 l0 -125 l-226 0 l0 -216 l35 0 q122 0 183 -56 q61 -56 61 -178 q0 -92 -31.5 -143.5 q-31.5 -51.5 -87 -71.5 q-55.5 -20 -136.5 -20 l-189 0 l0 810 ZM253 110 q55 0 78 28 q23 28 23 95 q0 60 -22 90.5 q-22 30.5 -81 30.5 l-23 0 l0 -244 l25 0 Z" /><glyph glyph-name="uni0412" unicode="&#x412;" d="M63 810 l206 0 q117 0 183 -44 q66 -44 66 -159 q0 -152 -118 -172 q71 -10 107 -61 q36 -51 36 -139 q0 -118 -61 -176.5 q-61 -58.5 -177 -58.5 l-242 0 l0 810 ZM270 483 q60 0 82 27 q22 27 22 86 q0 54 -28 77.5 q-28 23.5 -87 23.5 l-31 0 l0 -214 l42 0 ZM275 116 q60 0 84.5 30 q24.5 30 24.5 95 q0 70 -25.5 100.5 q-25.5 30.5 -86.5 30.5 l-44 0 l0 -256 l47 0 Z" /><glyph glyph-name="uni0413" unicode="&#x413;" d="M63 810 l360 0 l0 -122 l-195 0 l0 -688 l-165 0 l0 810 Z" /><glyph glyph-name="uni0414" unicode="&#x414;" d="M16 118 l27 0 q38 15 65.5 58 q27.5 43 46.5 130 q19 87 28 230 l20 274 l369 0 l0 -692 l88 0 l0 -287 l-111 0 l-9 169 l-398 0 l-10 -169 l-116 0 l0 287 ZM416 118 l0 574 l-86 0 l-9 -176 q-8 -141 -26 -220 q-18 -79 -40 -112.5 q-22 -33.5 -57 -65.5 l218 0 Z" /><glyph glyph-name="uni0415" unicode="&#x415;" d="M61 810 l347 0 l0 -114 l-183 0 l0 -215 l140 0 l0 -115 l-140 0 l0 -254 l185 0 l0 -112 l-349 0 l0 810 Z" /><glyph glyph-name="uni0416" unicode="&#x416;" d="M179 409 l-166 401 l154 0 l144 -381 l8 0 l0 381 l132 0 l0 -381 l8 0 l143 381 l155 0 l-167 -401 l175 -409 l-151 0 l-155 396 l-8 0 l0 -396 l-132 0 l0 396 l-9 0 l-155 -396 l-150 0 l174 409 Z" /><glyph glyph-name="uni0417" unicode="&#x417;" d="M261 -14 q-116 0 -167 64 q-51 64 -51 181 l0 28 l154 0 q0 -19 1 -30 q1 -61 14.5 -87 q13.5 -26 50.5 -26 q37 0 50 27.5 q13 27.5 13 88.5 q0 65 -22 97 q-22 32 -80 34 l-42 0 l0 105 l39 0 q60 1 82.5 31.5 q22.5 30.5 22.5 95.5 q0 51 -16.5 77 q-16.5 26 -53.5 26 q-36 0 -51.5 -26.5 q-15.5 -26.5 -17.5 -75.5 l0 -41 l-155 0 l0 44 q0 105 60 163.5 q60 58.5 163 58.5 q106 0 164.5 -56 q58.5 -56 58.5 -161 q0 -70 -29 -118.5 q-29 -48.5 -74 -60.5 q103 -38 103 -189 q0 -118 -52 -184 q-52 -66 -165 -66 Z" /><glyph glyph-name="uni0418" unicode="&#x418;" d="M63 810 l132 0 l0 -485 l214 485 l108 0 l0 -810 l-134 0 l0 493 l-216 -493 l-104 0 l0 810 Z" /><glyph glyph-name="uni0419" unicode="&#x419;" d="M63 810 l132 0 l0 -485 l214 485 l108 0 l0 -810 l-134 0 l0 493 l-216 -493 l-104 0 l0 810 Z" /><glyph glyph-name="uni041A" unicode="&#x41a;" d="M63 810 l165 0 l0 -329 l23 0 l125 329 l163 0 l-150 -381 l159 -429 l-169 0 l-128 362 l-23 0 l0 -362 l-165 0 l0 810 Z" /><glyph glyph-name="uni041B" unicode="&#x41b;" d="M6 117 q56 -1 77.5 17 q21.5 18 31 77 q9.5 59 21.5 222 l27 377 l413 0 l0 -810 l-164 0 l0 685 l-102 0 l-16 -279 q-12 -174 -28 -252 q-16 -78 -63.5 -116.5 q-47.5 -38.5 -151.5 -38.5 q-29 0 -45 1 l0 117 Z" /><glyph glyph-name="uni041C" unicode="&#x41c;" d="M72 810 l171 0 l104 -497 l109 497 l166 0 l15 -810 l-119 0 l-12 532 l-114 -532 l-85 0 l-118 535 l-11 -535 l-120 0 l14 810 Z" /><glyph glyph-name="uni041D" unicode="&#x41d;" d="M61 810 l164 0 l0 -332 l138 0 l0 332 l164 0 l0 -810 l-164 0 l0 359 l-138 0 l0 -359 l-164 0 l0 810 Z" /><glyph glyph-name="uni041E" unicode="&#x41e;" d="M286 -11 q-129 0 -184 67.5 q-55 67.5 -55 198.5 l0 302 q0 130 55 196.5 q55 66.5 184 66.5 q129 0 185 -66.5 q56 -66.5 56 -196.5 l0 -303 q0 -130 -56 -197.5 q-56 -67.5 -185 -67.5 ZM286 107 q43 0 57.5 28.5 q14.5 28.5 14.5 78.5 l0 383 q0 50 -14.5 77.5 q-14.5 27.5 -57.5 27.5 q-43 0 -56.5 -27 q-13.5 -27 -13.5 -78 l0 -383 q0 -51 13.5 -79 q13.5 -28 56.5 -28 Z" /><glyph glyph-name="uni041F" unicode="&#x41f;" d="M61 810 l477 0 l0 -810 l-163 0 l0 692 l-152 0 l0 -692 l-162 0 l0 810 Z" /><glyph glyph-name="uni0420" unicode="&#x420;" d="M61 810 l257 0 q210 0 210 -233 q0 -123 -60 -174.5 q-60 -51.5 -167 -51.5 l-76 0 l0 -351 l-164 0 l0 810 ZM284 467 q53 0 71 25 q18 25 18 88 q0 41 -6 64.5 q-6 23.5 -25.5 36.5 q-19.5 13 -58.5 13 l-58 0 l0 -227 l59 0 Z" /><glyph glyph-name="uni0421" unicode="&#x421;" d="M285 -11 q-129 0 -183.5 70 q-54.5 70 -54.5 200 l0 290 q0 133 54 202 q54 69 184 69 q123 0 175 -60.5 q52 -60.5 52 -173.5 l0 -68 l-161 0 l0 75 q0 37 -3 58.5 q-3 21.5 -17.5 36 q-14.5 14.5 -45.5 14.5 q-44 0 -57 -29 q-13 -29 -13 -85 l0 -368 q0 -57 14.5 -85 q14.5 -28 55.5 -28 q30 0 44.5 15 q14.5 15 18 38 q3.5 23 3.5 60 l0 79 l161 0 l0 -67 q0 -116 -51 -179.5 q-51 -63.5 -176 -63.5 Z" /><glyph glyph-name="uni0422" unicode="&#x422;" d="M139 688 l-128 0 l0 122 l418 0 l0 -122 l-125 0 l0 -688 l-165 0 l0 688 Z" /><glyph glyph-name="uni0423" unicode="&#x423;" d="M53 -40 l27 -1 q63 0 93.5 20 q30.5 20 30.5 65 q0 15 -5 40 l-178 726 l154 0 l69 -335 l35 -226 l27 226 l59 335 l156 0 l-164 -748 q-19 -89 -45.5 -133 q-26.5 -44 -77.5 -62.5 q-51 -18.5 -148 -18.5 l-33 0 l0 112 Z" /><glyph glyph-name="uni0424" unicode="&#x424;" d="M300 94 q-27 -3 -57 -3 q-89 0 -142.5 51.5 q-53.5 51.5 -53.5 150.5 l0 235 q0 94 57 148 q57 54 151 54 q21 0 45 -2 l0 135 l137 0 l0 -135 q26 2 43 2 q96 0 153.5 -54.5 q57.5 -54.5 57.5 -147.5 l0 -236 q0 -65 -24.5 -110.5 q-24.5 -45.5 -67 -68.5 q-42.5 -23 -94.5 -23 q-33 0 -68 3 l0 -124 l-137 0 l0 125 ZM278 192 q12 0 22 2 l0 436 q-14 2 -25 2 q-82 0 -82 -103 l0 -238 q0 -50 19 -74.5 q19 -24.5 66 -24.5 ZM461 193 q45 0 64.5 23.5 q19.5 23.5 19.5 73.5 l0 239 q0 54 -19 78.5 q-19 24.5 -59 24.5 q-12 0 -30 -2 l0 -435 q14 -2 24 -2 Z" /><glyph glyph-name="uni0425" unicode="&#x425;" d="M167 434 l-153 376 l155 0 l96 -234 l83 234 l140 0 l-149 -415 l161 -395 l-155 0 l-105 256 l-93 -256 l-139 0 l159 434 Z" /><glyph glyph-name="uni0427" unicode="&#x427;" d="M363 342 q-55 -9 -98 -9 q-97 0 -158.5 51 q-61.5 51 -61.5 143 l0 283 l160 0 l0 -283 q0 -47 19.5 -69.5 q19.5 -22.5 80.5 -22.5 q26 0 58 6 l0 369 l166 0 l0 -810 l-166 0 l0 342 Z" /><glyph glyph-name="uni0426" unicode="&#x426;" d="M510 0 l-447 0 l0 810 l165 0 l0 -698 l156 0 l0 698 l165 0 l0 -698 l103 0 l0 -281 l-122 0 l-20 169 Z" /><glyph glyph-name="uni0428" unicode="&#x428;" d="M63 810 l157 0 l0 -692 l109 0 l0 692 l156 0 l0 -692 l105 0 l0 692 l156 0 l0 -810 l-683 0 l0 810 Z" /><glyph glyph-name="uni0429" unicode="&#x429;" d="M710 0 l-647 0 l0 810 l157 0 l0 -698 l109 0 l0 698 l156 0 l0 -698 l105 0 l0 698 l157 0 l0 -698 l103 0 l0 -281 l-122 0 l-18 169 Z" /><glyph glyph-name="uni042C" unicode="&#x42c;" d="M63 810 l165 0 l0 -341 l38 0 q121 0 182 -56 q61 -56 61 -178 q0 -92 -31.5 -143.5 q-31.5 -51.5 -87 -71.5 q-55.5 -20 -136.5 -20 l-191 0 l0 810 ZM254 110 q55 0 78.5 27.5 q23.5 27.5 23.5 91.5 q0 62 -22 93.5 q-22 31.5 -82 31.5 l-24 0 l0 -244 l26 0 Z" /><glyph glyph-name="uni042A" unicode="&#x42a;" d="M134 695 l-142 0 l0 115 l308 0 l0 -341 l42 0 q122 0 183 -55.5 q61 -55.5 61 -178.5 q0 -92 -31.5 -143.5 q-31.5 -51.5 -87 -71.5 q-55.5 -20 -136.5 -20 l-197 0 l0 695 ZM332 110 q54 0 77.5 27.5 q23.5 27.5 23.5 91.5 q0 62 -22 93.5 q-22 31.5 -82 31.5 l-29 0 l0 -244 l32 0 Z" /><glyph glyph-name="uni042B" unicode="&#x42b;" d="M63 810 l165 0 l0 -341 l39 0 q121 0 182 -56 q61 -56 61 -178 q0 -92 -31.5 -143.5 q-31.5 -51.5 -87.5 -71.5 q-56 -20 -137 -20 l-191 0 l0 810 ZM581 810 l165 0 l0 -810 l-165 0 l0 810 ZM256 110 q54 0 77.5 27.5 q23.5 27.5 23.5 91.5 q0 62 -22 93.5 q-22 31.5 -81 31.5 l-26 0 l0 -244 l28 0 Z" /><glyph glyph-name="uni042D" unicode="&#x42d;" d="M277 -7 q-124 0 -175.5 60.5 q-51.5 60.5 -51.5 172.5 l0 43 l160 0 l0 -49 q0 -36 3.5 -58 q3.5 -22 18.5 -36.5 q15 -14.5 45 -14.5 q43 0 56.5 29.5 q13.5 29.5 13.5 85.5 l0 140 l-136 0 l0 86 l136 0 l0 142 q0 56 -15 84 q-15 28 -55 28 q-43 0 -55 -28 q-12 -28 -12 -84 l0 -51 l-160 0 l0 39 q0 115 51 179 q51 64 176 64 q129 0 183 -70 q54 -70 54 -200 l0 -290 q0 -134 -53.5 -203 q-53.5 -69 -183.5 -69 Z" /><glyph glyph-name="uni042E" unicode="&#x42e;" d="M534 -11 q-121 0 -171 70 q-50 70 -50 204 l0 87 l-88 0 l0 -350 l-162 0 l0 810 l162 0 l0 -338 l88 0 l0 76 q0 133 50 202.5 q50 69.5 171 69.5 q120 0 170 -70 q50 -70 50 -202 l0 -285 q0 -133 -50 -203.5 q-50 -70.5 -170 -70.5 ZM534 107 q40 0 53.5 28.5 q13.5 28.5 13.5 78.5 l0 383 q0 50 -13.5 77.5 q-13.5 27.5 -53.5 27.5 q-41 0 -54.5 -27.5 q-13.5 -27.5 -13.5 -77.5 l0 -383 q0 -50 13.5 -78.5 q13.5 -28.5 54.5 -28.5 Z" /><glyph glyph-name="uni042F" unicode="&#x42f;" d="M168 361 q-50 28 -79 82.5 q-29 54.5 -29 128.5 q0 127 67 182.5 q67 55.5 203 55.5 l200 0 l0 -810 l-165 0 l0 323 l-39 0 l-14 1 l-122 -324 l-179 0 l157 361 ZM365 440 l0 256 l-32 0 q-119 0 -119 -125 q0 -63 28 -97 q28 -34 94 -34 l29 0 Z" /></font>
</defs>
</svg>
